<svg width="50" height="50" viewBox="0 0 50 50" fill="none" xmlns="http://www.w3.org/2000/svg">
<rect width="50" height="50" rx="10" fill="#ECEFF7"/>
<rect opacity="0.3" x="17" y="17" width="4" height="4" rx="1" fill="#51459E"/>
<path fill-rule="evenodd" clip-rule="evenodd" d="M24 17C23.4477 17 23 17.4477 23 18V20C23 20.5523 23.4477 21 24 21H26C26.5523 21 27 20.5523 27 20V18C27 17.4477 26.5523 17 26 17H24ZM18 23C17.4477 23 17 23.4477 17 24V26C17 26.5523 17.4477 27 18 27H20C20.5523 27 21 26.5523 21 26V24C21 23.4477 20.5523 23 20 23H18ZM23 24C23 23.4477 23.4477 23 24 23H26C26.5523 23 27 23.4477 27 24V26C27 26.5523 26.5523 27 26 27H24C23.4477 27 23 26.5523 23 26V24ZM30 17C29.4477 17 29 17.4477 29 18V20C29 20.5523 29.4477 21 30 21H32C32.5523 21 33 20.5523 33 20V18C33 17.4477 32.5523 17 32 17H30ZM29 24C29 23.4477 29.4477 23 30 23H32C32.5523 23 33 23.4477 33 24V26C33 26.5523 32.5523 27 32 27H30C29.4477 27 29 26.5523 29 26V24ZM18 29C17.4477 29 17 29.4477 17 30V32C17 32.5523 17.4477 33 18 33H20C20.5523 33 21 32.5523 21 32V30C21 29.4477 20.5523 29 20 29H18ZM23 30C23 29.4477 23.4477 29 24 29H26C26.5523 29 27 29.4477 27 30V32C27 32.5523 26.5523 33 26 33H24C23.4477 33 23 32.5523 23 32V30ZM30 29C29.4477 29 29 29.4477 29 30V32C29 32.5523 29.4477 33 30 33H32C32.5523 33 33 32.5523 33 32V30C33 29.4477 32.5523 29 32 29H30Z" fill="#51459E"/>
</svg>
