<svg width="50" height="50" viewBox="0 0 50 50" fill="none" xmlns="http://www.w3.org/2000/svg">
<rect width="50" height="50" rx="10" fill="#51459E"/>
<rect x="17" y="17" width="7" height="7" rx="1.5" fill="#DEE1E6"/>
<path opacity="0.3" fill-rule="evenodd" clip-rule="evenodd" d="M26 18.5C26 17.6716 26.6716 17 27.5 17H31.5C32.3284 17 33 17.6716 33 18.5V22.5C33 23.3284 32.3284 24 31.5 24H27.5C26.6716 24 26 23.3284 26 22.5V18.5ZM17 27.5C17 26.6716 17.6716 26 18.5 26H22.5C23.3284 26 24 26.6716 24 27.5V31.5C24 32.3284 23.3284 33 22.5 33H18.5C17.6716 33 17 32.3284 17 31.5V27.5ZM27.5 26C26.6716 26 26 26.6716 26 27.5V31.5C26 32.3284 26.6716 33 27.5 33H31.5C32.3284 33 33 32.3284 33 31.5V27.5C33 26.6716 32.3284 26 31.5 26H27.5Z" fill="#DEE1E6"/>
<path fill-rule="evenodd" clip-rule="evenodd" d="M27.584 0H40C45.5228 0 50 4.47715 50 10V21.1182C48.2704 21.6904 46.4214 22 44.5 22C34.835 22 27 14.165 27 4.5C27 2.94423 27.203 1.43589 27.584 0Z" fill="#84E8F4"/>
</svg>
