<svg width="24" height="24" viewBox="0 0 24 24" fill="none" xmlns="http://www.w3.org/2000/svg">
<path opacity="0.3" fill-rule="evenodd" clip-rule="evenodd" d="M2 19.5C2 20.3284 2.67157 21 3.5 21H20.5C21.3284 21 22 20.3284 22 19.5V8.5C22 7.67157 21.3284 7 20.5 7H10L7.43934 4.43934C7.15804 4.15804 6.7765 4 6.37868 4H3.5C2.67157 4 2 4.67157 2 5.5V19.5Z" fill="#51459E"/>
<path fill-rule="evenodd" clip-rule="evenodd" d="M12.6625 11.7643L9.6938 13.5692C9.61346 13.2681 9.45093 13.0006 9.23172 12.7921L12.2823 10.9949C12.3404 11.2859 12.4743 11.5495 12.6625 11.7643ZM9.26588 15.1745C9.46672 14.9723 9.61606 14.7188 9.69255 14.4355L12.7076 16.1862C12.5148 16.3893 12.3726 16.6411 12.3014 16.9212L9.26588 15.1745Z" fill="#51459E"/>
<path opacity="0.3" fill-rule="evenodd" clip-rule="evenodd" d="M14.417 11.9166C15.3835 11.9166 16.167 11.1331 16.167 10.1666C16.167 9.20013 15.3835 8.41663 14.417 8.41663C13.4505 8.41663 12.667 9.20013 12.667 10.1666C12.667 11.1331 13.4505 11.9166 14.417 11.9166Z" fill="#51459E"/>
<path opacity="0.3" fill-rule="evenodd" clip-rule="evenodd" d="M14.417 19.5C15.3835 19.5 16.167 18.7165 16.167 17.75C16.167 16.7835 15.3835 16 14.417 16C13.4505 16 12.667 16.7835 12.667 17.75C12.667 18.7165 13.4505 19.5 14.417 19.5Z" fill="#51459E"/>
<path opacity="0.3" fill-rule="evenodd" clip-rule="evenodd" d="M7.5498 15.8C8.5163 15.8 9.2998 15.0165 9.2998 14.05C9.2998 13.0835 8.5163 12.3 7.5498 12.3C6.58331 12.3 5.7998 13.0835 5.7998 14.05C5.7998 15.0165 6.58331 15.8 7.5498 15.8Z" fill="#51459E"/>
</svg>
