<svg width="50" height="50" viewBox="0 0 50 50" fill="none" xmlns="http://www.w3.org/2000/svg">
<rect width="50" height="50" rx="10" fill="#ECEFF7"/>
<path fill-rule="evenodd" clip-rule="evenodd" d="M18 20C16.8954 20 16 20.8954 16 22V30C16 31.1046 16.8954 32 18 32H32C33.1046 32 34 31.1046 34 30V22C34 20.8954 33.1046 20 32 20H18ZM21 26C21 28.2091 22.7909 30 25 30C27.2091 30 29 28.2091 29 26C29 23.7909 27.2091 22 25 22C22.7909 22 21 23.7909 21 26Z" fill="#51459E"/>
<rect opacity="0.3" x="22" y="17" width="6" height="2" rx="1" fill="#51459E"/>
<path opacity="0.3" fill-rule="evenodd" clip-rule="evenodd" d="M25 28C26.1046 28 27 27.1046 27 26C27 24.8954 26.1046 24 25 24C23.8954 24 23 24.8954 23 26C23 27.1046 23.8954 28 25 28Z" fill="#51459E"/>
</svg>
