<svg width="50" height="50" viewBox="0 0 50 50" fill="none" xmlns="http://www.w3.org/2000/svg">
<rect width="50" height="50" rx="10" fill="#ECEFF7"/>
<path fill-rule="evenodd" clip-rule="evenodd" d="M33 22H28V17C28 17 28 16 27 16C26 16 26 17 26 17V24H33C33 24 34 23.8284 34 23C34 22.1716 33 22 33 22ZM18 27H23V32C23 32 23 33 24 33C25 33 25 32 25 32V25H18C18 25 17 25.1716 17 26C17 26.8284 18 27 18 27Z" fill="#51459E"/>
<path opacity="0.3" fill-rule="evenodd" clip-rule="evenodd" d="M29.8787 18.7071C29.4882 19.0976 29.4882 19.7308 29.8787 20.1213C30.2692 20.5118 30.9024 20.5118 31.2929 20.1213L34.1213 17.2929C34.5119 16.9024 34.5119 16.2692 34.1213 15.8787C33.7308 15.4882 33.0977 15.4882 32.7071 15.8787L29.8787 18.7071ZM16.8787 31.7071C16.4882 32.0976 16.4882 32.7308 16.8787 33.1213C17.2692 33.5118 17.9024 33.5118 18.2929 33.1213L21.1213 30.2929C21.5119 29.9024 21.5119 29.2692 21.1213 28.8787C20.7308 28.4882 20.0977 28.4882 19.7071 28.8787L16.8787 31.7071Z" fill="#51459E"/>
</svg>
