<svg width="50" height="50" viewBox="0 0 50 50" fill="none" xmlns="http://www.w3.org/2000/svg">
<rect width="50" height="50" rx="10" fill="#ECEFF7"/>
<path opacity="0.3" d="M23.9 15C24.4523 15 24.9 15.4477 24.9 16C24.9 16.5523 24.4523 17 23.9 17H19C17.8954 17 17 17.8954 17 19V31C17 32.1046 17.8954 33 19 33H31C32.1046 33 33 32.1046 33 31V29C33 28.4477 33.4477 28 34 28C34.5523 28 35 28.4477 35 29V31C35 33.2091 33.2091 35 31 35H19C16.7909 35 15 33.2091 15 31V19C15 16.7909 16.7909 15 19 15H23.9Z" fill="#51459E"/>
<path d="M20.0045 26.8973C20.0045 26.1346 19.8411 23.1246 22.2155 20.7366C23.8136 19.1294 26.2053 18.8507 29.0654 18.7236V14.8379C29.0654 14.1872 29.8374 13.8452 30.3194 14.2824L36.8275 20.1868C37.1534 20.4824 37.156 20.9936 36.8332 21.2926L30.325 27.3198C29.8449 27.7645 29.0654 27.4239 29.0654 26.7695V22.9076C27.2494 22.9576 25.9559 23.0731 24.7806 23.447C22.509 24.1696 21.1611 27.2685 20.7976 28.2124C20.7349 28.3752 20.5797 28.4863 20.4053 28.4863C20.1814 28.4863 20.0001 28.305 20.0008 28.0812C20.0021 27.6691 20.0045 27.1955 20.0045 26.8973Z" fill="#51459E"/>
</svg>
