<svg width="50" height="50" viewBox="0 0 50 50" fill="none" xmlns="http://www.w3.org/2000/svg">
<rect width="50" height="50" rx="10" fill="#ECEFF7"/>
<path opacity="0.3" d="M18.8571 15H26.7364C27.0911 15 27.4343 15.1257 27.7051 15.3547L32.4687 19.3839C32.8057 19.6689 33 20.0879 33 20.5292V33.0833C33 34.8739 32.9796 35 31.1429 35H18.8571C17.0204 35 17 34.8739 17 33.0833V16.9167C17 15.1261 17.0204 15 18.8571 15Z" fill="#51459E"/>
<rect x="20" y="30" width="9" height="1" rx="0.5" fill="#51459E"/>
<path d="M29.1692 21.7096C29.755 22.2953 29.755 23.2451 29.1692 23.8309L24.8574 28.1427C24.5872 28.413 24.2239 28.5699 23.8418 28.5813L22.8709 28.6105C22.0165 28.6362 21.3134 27.9437 21.326 27.089L21.3395 26.1805C21.3452 25.7904 21.5028 25.4179 21.7786 25.142L26.1295 20.7911C26.7153 20.2054 27.665 20.2054 28.2508 20.7911L29.1692 21.7096Z" fill="#51459E"/>
</svg>
